<?xml version="1.0" encoding="utf-8"?>
<!-- Generator: Adobe Illustrator 16.0.3, SVG Export Plug-In . SVG Version: 6.00 Build 0)  -->
<!DOCTYPE svg PUBLIC "-//W3C//DTD SVG 1.1//EN" "http://www.w3.org/Graphics/SVG/1.1/DTD/svg11.dtd">
<svg version="1.1" id="Vrstva_1" xmlns="http://www.w3.org/2000/svg" xmlns:xlink="http://www.w3.org/1999/xlink" x="0px" y="0px"
	 width="300px" height="51px" viewBox="0 0 300 51" enable-background="new 0 0 300 51" xml:space="preserve">
<g>
	<g>
		<path fill="#00673E" d="M30.998,37.067h-5.854c-2.484,0-4.479-0.555-6.063-1.655c-1.585-1.104-2.618-2.339-3.03-3.717h14.946
			V20.47H16.052c1.51-3.579,4.748-5.371,9.71-5.371h5.236V2.567h-7.71c-4.555,0-8.613,1.098-12.195,3.164
			c-3.507,2.136-6.2,4.958-8.126,8.474c-1.861,3.439-2.89,7.16-2.958,11.015c-0.071,3.028,0.348,5.926,1.306,8.748
			c1.037,2.753,2.554,5.372,4.615,7.847c2.072,2.411,4.615,4.271,7.574,5.647c2.962,1.379,6.269,2.065,9.918,2.065H31v-12.46H30.998
			z M71.899,49.527v-17.28c0-1.93-0.422-3.513-1.309-4.753c-0.896-1.235-1.929-2.205-3.095-2.892
			c-1.177-0.688-2.145-1.099-3.034-1.239c1.169-0.825,2.064-1.927,2.683-3.236c0.627-1.309,1.377-3.373,2.273-5.992l3.722-11.429
			H58.477l-4.005,11.5c-0.409,1.653-0.896,2.96-1.302,3.992c-0.484,1.101-1.104,1.516-1.726,1.238V2.705H36.915v46.822h14.529
			V30.456c1.93,0,3.378,0.203,4.34,0.553c0.968,0.412,1.447,1.307,1.447,2.685v15.833H71.899L71.899,49.527z M126.507,26.325
			c0-4.34-1.104-8.404-3.173-12.191c-2.069-3.854-5.024-6.815-8.671-9.022c-3.719-2.202-7.918-3.304-12.536-3.304
			c-4.889,0-9.09,1.173-12.738,3.654c-3.576,2.406-6.397,5.506-8.33,9.159c-1.998,3.713-2.959,7.432-2.959,11.154
			c0,4.75,1.102,9.016,3.368,12.808c2.28,3.787,5.375,6.679,9.159,8.813c3.786,2.063,7.788,3.024,11.916,2.965
			c2.896-0.072,5.781-0.691,8.679-1.934c2.895-1.167,5.504-2.827,7.784-4.956c2.339-2.137,4.128-4.617,5.505-7.577
			C125.815,33.003,126.507,29.835,126.507,26.325z M108.807,33.003c-1.857,1.586-4.063,2.409-6.742,2.546
			c-2.41-0.138-4.55-0.96-6.34-2.546c-1.789-1.651-2.688-3.856-2.688-6.678c0-2.895,0.899-5.234,2.688-6.958
			c1.857-1.653,3.995-2.546,6.538-2.546c2.549,0,4.751,0.824,6.544,2.409c1.857,1.651,2.761,3.928,2.761,6.889
			C111.568,29.078,110.665,31.352,108.807,33.003z M153.355,48.014c2.696-0.962,4.824-2.477,6.415-4.542
			c1.582-2.066,2.199-4.753,1.854-7.921c-0.133-1.791-0.613-3.375-1.377-4.82c-0.825-1.513-1.792-2.75-2.821-3.854
			c-1.105-1.102-2.476-2.342-4.197-3.649c-1.73-1.314-3.374-2.55-5.041-3.791c-0.894-0.687-1.365-1.371-1.574-2.063
			c0.142-1.036,1.303-1.583,3.515-1.583h9.704V2.567h-14.526c-3.443,0-6.749,0.895-9.916,2.752c-3.099,1.792-4.683,5.027-4.755,9.78
			c0,1.58,0.283,3.03,0.756,4.199c0.552,1.172,1.313,2.41,2.417,3.582c1.104,1.238,2.341,2.479,3.852,3.719
			c1.452,1.311,3.03,2.689,4.747,4.269c1.453,1.171,2.206,2.341,2.206,3.44c0,1.242-1.035,1.863-3.233,1.863h-10.887v13.356h14.396
			C147.854,49.527,150.681,49.045,153.355,48.014z M194.541,5.598c-3.582-2.824-7.847-4.065-12.738-3.791
			c-5.31,0.277-9.366,2.138-12.052,5.577c-2.693,3.514-4.063,7.785-4.063,12.949v29.194h14.675V20.333
			c0-2.065,0.275-3.371,0.817-3.997c0.488-0.615,1.309-0.961,2.553-0.961c2.06,0,3.168,1.101,3.168,3.303
			c0,1.036-0.417,1.999-1.237,2.758c-0.828,0.826-1.994,1.169-3.446,1.032v12.944c0.415,0,0.753,0,1.032,0.138
			c6.196-0.066,10.744-1.856,13.565-5.37c2.762-3.513,3.995-7.782,3.65-12.808C200.046,12.347,198.059,8.417,194.541,5.598z
			 M248.593,14.134c-2.063-3.854-4.956-6.815-8.675-9.022c-3.715-2.202-7.914-3.304-12.523-3.304c-4.896,0-9.093,1.173-12.747,3.654
			c-3.579,2.406-6.406,5.506-8.33,9.159c-1.997,3.713-2.959,7.432-2.959,11.154c0,4.75,1.102,9.016,3.364,12.808
			c2.281,3.787,5.382,6.679,9.166,8.813c3.858,2.063,7.781,3.024,11.912,2.965c2.895-0.072,5.791-0.691,8.682-1.934
			c2.895-1.167,5.51-2.827,7.781-4.956c2.332-2.137,4.128-4.617,5.506-7.577c1.31-2.891,2-6.059,2-9.569
			C251.77,21.985,250.727,17.921,248.593,14.134z M234.069,33.003c-1.785,1.586-4.06,2.409-6.753,2.546
			c-2.404-0.138-4.543-0.96-6.332-2.546c-1.789-1.651-2.683-3.856-2.683-6.678c0-2.895,0.894-5.234,2.751-6.958
			c1.792-1.653,3.991-2.546,6.473-2.546c2.554,0,4.759,0.824,6.608,2.409c1.79,1.651,2.688,3.928,2.688,6.889
			C236.823,29.078,235.924,31.352,234.069,33.003z M272.153,32.111V2.567h-14.672v32.296c0,4.405,1.238,7.984,3.722,10.674
			c2.474,2.615,5.646,3.99,9.635,3.99h13.437V36.17h-7.443C273.737,36.17,272.153,34.863,272.153,32.111z M299.387,4.979
			c-0.412-0.891-0.969-1.785-1.715-2.468c-0.692-0.761-1.51-1.306-2.479-1.72c-0.958-0.409-1.993-0.623-3.022-0.623
			c-1.439,0-2.747,0.415-3.979,1.104c-1.18,0.688-2.131,1.646-2.818,2.815c-0.753,1.235-1.102,2.542-1.102,3.986
			c0,1.374,0.349,2.679,1.102,3.917c0.688,1.164,1.64,2.128,2.818,2.883c1.23,0.686,2.538,1.031,3.979,1.031
			c1.377,0,2.683-0.345,3.919-1.031c1.162-0.755,2.127-1.719,2.885-2.883C299.661,10.753,300,9.448,300,8.074
			C300,6.975,299.803,5.941,299.387,4.979z M297.944,11.438c-0.552,1.028-1.374,1.856-2.416,2.403
			c-1.02,0.62-2.188,0.965-3.356,0.965c-1.229,0-2.335-0.345-3.364-0.965c-1.036-0.547-1.852-1.375-2.479-2.403
			c-0.606-1.03-0.888-2.198-0.888-3.436c0-1.169,0.28-2.335,0.888-3.36c0.627-1.035,1.441-1.858,2.479-2.41
			c1.029-0.615,2.137-0.959,3.364-0.959c1.169,0,2.338,0.344,3.356,0.959c1.042,0.552,1.797,1.375,2.416,2.41
			c0.617,1.025,0.891,2.191,0.891,3.432C298.834,9.24,298.562,10.408,297.944,11.438z M295.75,10.136
			c0-0.62-0.072-1.033-0.223-1.377c-0.129-0.273-0.397-0.552-0.813-0.757c0.479-0.273,0.754-0.551,0.893-0.821
			c0.204-0.274,0.27-0.687,0.27-1.166c0-0.963-0.27-1.653-0.882-1.992c-0.554-0.346-1.373-0.547-2.338-0.547h-3.776v8.99h1.369
			V8.759h2.267c0.687,0,1.105,0.072,1.371,0.275c0.283,0.139,0.412,0.342,0.483,0.62c0,0.208,0.07,0.615,0.07,1.305
			c0,0.615,0.068,1.096,0.209,1.507h1.573c-0.211-0.343-0.348-0.685-0.412-0.961C295.811,11.162,295.75,10.753,295.75,10.136z
			 M294.024,7.181c-0.271,0.205-0.753,0.27-1.51,0.27h-2.267v-2.68h2.339c0.685,0,1.165,0.073,1.51,0.281
			c0.272,0.203,0.412,0.547,0.412,1.1C294.509,6.63,294.298,6.975,294.024,7.181z"/>
	</g>
</g>
</svg>
